<svg xmlns="http://www.w3.org/2000/svg" xmlns:xlink="http://www.w3.org/1999/xlink" width="423" zoomAndPan="magnify" viewBox="0 0 375 374.999991" height="100" preserveAspectRatio="xMidYMid meet" version="1.0"><defs><g/><clipPath id="6f57d13c8d"><path d="M 42 160 L 70 160 L 70 207.3125 L 42 207.3125 Z M 42 160 " clip-rule="nonzero"/></clipPath><clipPath id="66433c0b20"><path d="M 87 160 L 115.492188 160 L 115.492188 207.3125 L 87 207.3125 Z M 87 160 " clip-rule="nonzero"/></clipPath><clipPath id="8d51e00366"><path d="M 58 147.3125 L 99 147.3125 L 99 206 L 58 206 Z M 58 147.3125 " clip-rule="nonzero"/></clipPath></defs><g clip-path="url(#6f57d13c8d)"><path fill="#ffffff" d="M 46.144531 193.464844 L 46.136719 160.527344 C 44.867188 160.296875 43.5 160.164062 42 160.164062 L 42 197.050781 C 42 197.050781 58.621094 199 69.804688 207.277344 C 64.636719 201.320312 56.917969 196.378906 46.144531 193.464844 " fill-opacity="1" fill-rule="nonzero"/></g><path fill="#ffffff" d="M 54.535156 186.261719 L 54.511719 155.582031 C 53.214844 154.953125 51.8125 154.398438 50.273438 153.953125 L 50.273438 190.835938 C 50.273438 190.835938 63.730469 194.417969 72.964844 204.953125 C 68.726562 197.71875 62.722656 190.40625 54.535156 186.261719 " fill-opacity="1" fill-rule="nonzero"/><g clip-path="url(#66433c0b20)"><path fill="#ffffff" d="M 111.195312 193.464844 L 111.203125 160.527344 C 112.472656 160.296875 113.839844 160.164062 115.339844 160.164062 L 115.339844 197.050781 C 115.339844 197.050781 98.71875 199 87.535156 207.277344 C 92.703125 201.320312 100.421875 196.378906 111.195312 193.464844 " fill-opacity="1" fill-rule="nonzero"/></g><path fill="#ffffff" d="M 102.804688 186.261719 L 102.828125 155.582031 C 104.125 154.953125 105.527344 154.398438 107.066406 153.953125 L 107.066406 190.835938 C 107.066406 190.835938 93.609375 194.417969 84.375 204.953125 C 88.613281 197.71875 94.617188 190.40625 102.804688 186.261719 " fill-opacity="1" fill-rule="nonzero"/><g clip-path="url(#8d51e00366)"><path fill="#ffffff" d="M 78.671875 168.117188 C 78.671875 168.117188 73.179688 156.589844 58.648438 147.316406 L 58.648438 184.199219 C 58.648438 184.199219 69.519531 191.375 78.003906 205.679688 L 78.003906 186.289062 C 76.859375 186.03125 76.011719 184.789062 76.011719 183.71875 C 76.011719 182.449219 77.199219 181.066406 78.671875 181.066406 C 80.140625 181.066406 81.328125 182.449219 81.328125 183.71875 C 81.328125 184.789062 80.480469 186.03125 79.335938 186.289062 L 79.335938 205.679688 C 87.820312 191.375 98.691406 184.199219 98.691406 184.199219 L 98.691406 147.316406 C 84.160156 156.589844 78.671875 168.117188 78.671875 168.117188 " fill-opacity="1" fill-rule="nonzero"/></g><g fill="#ffffff" fill-opacity="1"><g transform="translate(135.013261, 188.374996)"><g><path d="M 18.765625 -19.65625 L 18.765625 0 L 13.96875 0 L 13.96875 -8.09375 L 6.53125 -8.09375 L 6.53125 0 L 1.734375 0 L 1.734375 -19.65625 L 6.53125 -19.65625 L 6.53125 -11.953125 L 13.96875 -11.953125 L 13.96875 -19.65625 Z M 18.765625 -19.65625 "/></g></g></g><g fill="#ffffff" fill-opacity="1"><g transform="translate(155.478466, 188.374996)"><g><path d="M 6.53125 -15.8125 L 6.53125 -11.84375 L 12.9375 -11.84375 L 12.9375 -8.140625 L 6.53125 -8.140625 L 6.53125 -3.84375 L 13.78125 -3.84375 L 13.78125 0 L 1.734375 0 L 1.734375 -19.65625 L 13.78125 -19.65625 L 13.78125 -15.8125 Z M 6.53125 -15.8125 "/></g></g></g><g fill="#ffffff" fill-opacity="1"><g transform="translate(170.6244, 188.374996)"><g><path d="M 6.828125 -3.921875 L 15.28125 -3.921875 L 15.28125 0 L 1.40625 0 L 1.40625 -3.640625 L 9.796875 -15.734375 L 1.40625 -15.734375 L 1.40625 -19.65625 L 15.28125 -19.65625 L 15.28125 -16.015625 Z M 6.828125 -3.921875 "/></g></g></g><g fill="#ffffff" fill-opacity="1"><g transform="translate(187.310125, 188.374996)"><g><path d="M 6.53125 -15.8125 L 6.53125 -11.84375 L 12.9375 -11.84375 L 12.9375 -8.140625 L 6.53125 -8.140625 L 6.53125 -3.84375 L 13.78125 -3.84375 L 13.78125 0 L 1.734375 0 L 1.734375 -19.65625 L 13.78125 -19.65625 L 13.78125 -15.8125 Z M 6.53125 -15.8125 "/></g></g></g><g fill="#ffffff" fill-opacity="1"><g transform="translate(202.456059, 188.374996)"><g><path d="M 6.53125 -3.703125 L 12.796875 -3.703125 L 12.796875 0 L 1.734375 0 L 1.734375 -19.65625 L 6.53125 -19.65625 Z M 6.53125 -3.703125 "/></g></g></g><g fill="#ffffff" fill-opacity="1"><g transform="translate(215.810238, 188.374996)"><g><path d="M 19.3125 0 L 14.53125 0 L 6.53125 -12.125 L 6.53125 0 L 1.734375 0 L 1.734375 -19.65625 L 6.53125 -19.65625 L 14.53125 -7.46875 L 14.53125 -19.65625 L 19.3125 -19.65625 Z M 19.3125 0 "/></g></g></g><g fill="#ffffff" fill-opacity="1"><g transform="translate(236.863372, 188.374996)"><g><path d="M 13.96875 -3.46875 L 6.640625 -3.46875 L 5.453125 0 L 0.453125 0 L 7.5625 -19.65625 L 13.109375 -19.65625 L 20.21875 0 L 15.140625 0 Z M 12.734375 -7.171875 L 10.296875 -14.359375 L 7.890625 -7.171875 Z M 12.734375 -7.171875 "/></g></g></g><g fill="#ffffff" fill-opacity="1"><g transform="translate(257.496553, 188.374996)"><g><path d="M 15.875 -19.65625 L 15.875 -15.8125 L 10.671875 -15.8125 L 10.671875 0 L 5.875 0 L 5.875 -15.8125 L 0.671875 -15.8125 L 0.671875 -19.65625 Z M 15.875 -19.65625 "/></g></g></g><g fill="#ffffff" fill-opacity="1"><g transform="translate(274.042293, 188.374996)"><g/></g></g><g fill="#ffffff" fill-opacity="1"><g transform="translate(279.977485, 188.374996)"><g><path d="M 6.53125 -3.703125 L 12.796875 -3.703125 L 12.796875 0 L 1.734375 0 L 1.734375 -19.65625 L 6.53125 -19.65625 Z M 6.53125 -3.703125 "/></g></g></g><g fill="#ffffff" fill-opacity="1"><g transform="translate(293.331664, 188.374996)"><g><path d="M 24 -19.65625 L 24 0 L 19.203125 0 L 19.203125 -11.78125 L 14.8125 0 L 10.953125 0 L 6.53125 -11.8125 L 6.53125 0 L 1.734375 0 L 1.734375 -19.65625 L 7.390625 -19.65625 L 12.90625 -6.046875 L 18.375 -19.65625 Z M 24 -19.65625 "/></g></g></g><g fill="#ffffff" fill-opacity="1"><g transform="translate(319.032163, 188.374996)"><g><path d="M 8.84375 0.203125 C 7.40625 0.203125 6.117188 -0.03125 4.984375 -0.5 C 3.847656 -0.96875 2.9375 -1.660156 2.25 -2.578125 C 1.570312 -3.492188 1.210938 -4.59375 1.171875 -5.875 L 6.265625 -5.875 C 6.347656 -5.144531 6.601562 -4.585938 7.03125 -4.203125 C 7.457031 -3.828125 8.015625 -3.640625 8.703125 -3.640625 C 9.410156 -3.640625 9.96875 -3.800781 10.375 -4.125 C 10.789062 -4.457031 11 -4.910156 11 -5.484375 C 11 -5.972656 10.835938 -6.375 10.515625 -6.6875 C 10.191406 -7.007812 9.789062 -7.269531 9.3125 -7.46875 C 8.832031 -7.675781 8.15625 -7.910156 7.28125 -8.171875 C 6.007812 -8.566406 4.972656 -8.957031 4.171875 -9.34375 C 3.367188 -9.738281 2.675781 -10.316406 2.09375 -11.078125 C 1.519531 -11.847656 1.234375 -12.847656 1.234375 -14.078125 C 1.234375 -15.910156 1.894531 -17.34375 3.21875 -18.375 C 4.539062 -19.414062 6.269531 -19.9375 8.40625 -19.9375 C 10.5625 -19.9375 12.300781 -19.414062 13.625 -18.375 C 14.957031 -17.34375 15.671875 -15.90625 15.765625 -14.0625 L 10.578125 -14.0625 C 10.546875 -14.695312 10.3125 -15.191406 9.875 -15.546875 C 9.445312 -15.910156 8.898438 -16.09375 8.234375 -16.09375 C 7.648438 -16.09375 7.179688 -15.9375 6.828125 -15.625 C 6.472656 -15.320312 6.296875 -14.882812 6.296875 -14.3125 C 6.296875 -13.675781 6.59375 -13.179688 7.1875 -12.828125 C 7.789062 -12.472656 8.726562 -12.085938 10 -11.671875 C 11.269531 -11.242188 12.300781 -10.832031 13.09375 -10.4375 C 13.882812 -10.050781 14.566406 -9.484375 15.140625 -8.734375 C 15.722656 -7.984375 16.015625 -7.023438 16.015625 -5.859375 C 16.015625 -4.734375 15.726562 -3.710938 15.15625 -2.796875 C 14.59375 -1.878906 13.769531 -1.148438 12.6875 -0.609375 C 11.601562 -0.0664062 10.320312 0.203125 8.84375 0.203125 Z M 8.84375 0.203125 "/></g></g></g></svg>