<svg xmlns="http://www.w3.org/2000/svg" xmlns:xlink="http://www.w3.org/1999/xlink" width="60" zoomAndPan="magnify" viewBox="0 0 375 374.999991" height="50" preserveAspectRatio="xMidYMid meet" version="1.0"><path fill="#ffffff" d="M 192.605469 201.507812 C 155.414062 215.046875 121.085938 225.058594 96.226562 230.136719 C 73.351562 234.792969 58.5 235.296875 56.761719 230.519531 C 55.085938 225.917969 65.902344 217.230469 85.058594 206.652344 C 86.964844 205.601562 88.046875 203.480469 87.75 201.324219 C 87.746094 201.285156 87.742188 201.25 87.734375 201.210938 C 87.246094 197.621094 83.410156 195.542969 80.15625 197.136719 C 30.753906 221.335938 0.140625 243.433594 4.15625 254.464844 C 8.265625 265.757812 47.710938 262.597656 103.222656 248.523438 C 105.238281 248.011719 107.375 248.710938 108.664062 250.339844 C 134.871094 283.382812 180.226562 297.582031 222.035156 282.363281 C 274.875 263.128906 287.230469 224.605469 288.453125 196.109375 C 289.15625 179.679688 283.773438 168.324219 192.605469 201.507812 Z M 192.605469 201.507812 " fill-opacity="1" fill-rule="nonzero"/><path fill="#ffffff" d="M 371.007812 120.941406 C 366.808594 109.40625 325.84375 112.9375 268.550781 127.75 C 242.710938 92.789062 196.046875 77.40625 153.125 93.03125 C 108.8125 109.160156 93.40625 140.082031 88.640625 165.355469 C 85.324219 182.941406 88.078125 198.691406 179.472656 165.425781 C 216.085938 152.101562 249.914062 142.199219 274.679688 137.050781 C 298.207031 132.15625 313.550781 131.554688 315.320312 136.414062 C 316.871094 140.671875 307.726562 148.421875 291.175781 157.949219 C 287.507812 160.058594 285.65625 164.292969 286.472656 168.445312 C 286.484375 168.515625 286.496094 168.582031 286.511719 168.648438 C 287.75 175.03125 294.804688 178.402344 300.613281 175.488281 C 346.710938 152.382812 374.863281 131.539062 371.007812 120.941406 Z M 371.007812 120.941406 " fill-opacity="1" fill-rule="nonzero"/></svg>